<svg id="Layer_1" data-name="Layer 1" xmlns="http://www.w3.org/2000/svg" viewBox="0 0 1000 1000"><defs><style>.cls-1{fill:#ba2025;}.cls-2{fill:#fff;}</style></defs><path class="cls-1" d="M339.86,592.89c-.32.32-.29,1-.58,2.11,1.83-1.16,3.16-1.94,4.47-2.81,16.49-11.22,33.86-20.9,52.67-27.6a12.6,12.6,0,0,1,3.16-.67c.32,0,.64,0,.93,0a24.67,24.67,0,0,1,4.12.11c1.22.06,2.46.18,3.62.35,4.09.46,8.15,1.57,12.21,2.38V713.34H334.62V328.69h85.84v185.2a189.42,189.42,0,0,0-14.35,17.77c-1,1.42-2,2.84-3,4.29-1.13,1.65-2.23,3.36-3.33,5a42.15,42.15,0,0,1-15.48,15C367.29,565.55,353.46,579.14,339.86,592.89Z"></path><path class="cls-1" d="M603.36,397c-2.43,2.32-4.84,4.7-7.19,7.08a229.47,229.47,0,0,0-25.71,30.26V328.69h59.66C631.31,355.19,622.7,378.35,603.36,397Z"></path><path class="cls-1" d="M656.33,328.69v25.83a197.41,197.41,0,0,0-7.8-21.65c-.61-1.39-1.22-2.81-1.86-4.18Z"></path><path class="cls-1" d="M656.33,452.48V713.34H570.46V558.76c2.17-1.33,4.29-2.69,6.43-4.14,2.79-1.89,5.28-4.15,7.89-6.21-4.81.5-9.57,1-14.32,1.42v-5.71a101.52,101.52,0,0,0,19.59-6.84,99.74,99.74,0,0,0,11.8-6.49c23.37-14.87,48.59-41.43,51.29-54.91-10.18,6.41-19.45,13.6-31.28,17.19.43-1.1.46-1.56.69-1.71C638.73,481.39,649.8,468.28,656.33,452.48Z"></path><path class="cls-1" d="M663.11,424.19a97.07,97.07,0,0,1-6.78,28.29c-6.53,15.8-17.6,28.91-33.78,38.88-.23.15-.26.61-.69,1.71,11.83-3.59,21.1-10.78,31.28-17.19-2.7,13.48-27.92,40-51.29,54.91a99.74,99.74,0,0,1-11.8,6.49,101.52,101.52,0,0,1-19.59,6.84,117.94,117.94,0,0,1-41.49,2c13.71,4.92,27.45,4.9,41.49,3.76,4.75-.4,9.51-.92,14.32-1.42-2.61,2.06-5.1,4.32-7.89,6.21-2.14,1.45-4.26,2.81-6.43,4.14-.24.18-.5.32-.73.47l-2.09,1.22c-.72.43-1.5.84-2.23,1.24-.4.26-.81.47-1.19.67-.9.52-1.77,1-2.66,1.42-.41.23-.82.41-1.19.64-.87.4-1.74.84-2.61,1.24-3,1.45-6.06,2.79-9.1,4-1.19.46-2.41.92-3.63,1.36-.87.32-1.8.64-2.69.93a10.2,10.2,0,0,1-1.22.4c-1,.32-2,.61-2.93.9a5.7,5.7,0,0,1-1,.26c-.84.29-1.74.52-2.61.76a5.16,5.16,0,0,1-.9.23c-1.1.32-2.23.58-3.3.81-3.28.75-6.55,1.39-9.86,1.88s-6.9.93-10.4,1.16c-.58,0-1.14.09-1.72.09a143.63,143.63,0,0,1-30.61-1.57c-5.25-.81-10.49-1.91-15.83-3.21-12.73-3.22-26-4.29-39.05-6.44-.84-.14-1.65-.29-2.49-.49-4.06-.81-8.12-1.92-12.21-2.38-1.16-.17-2.4-.29-3.62-.35a24.67,24.67,0,0,0-4.12-.11c-.29,0-.61,0-.93,0a12.6,12.6,0,0,0-3.16.67c-18.81,6.7-36.18,16.38-52.67,27.6-1.31.87-2.64,1.65-4.47,2.81.29-1.16.26-1.79.58-2.11,13.6-13.75,27.43-27.34,44.42-36.91a42.15,42.15,0,0,0,15.48-15c1.1-1.68,2.2-3.39,3.33-5,1-1.45,2-2.87,3-4.29a189.42,189.42,0,0,1,14.35-17.77q1.79-2.06,3.71-4a214,214,0,0,1,50-38.53c3.42-1.92,7.3-3,11-4.32a32.13,32.13,0,0,1,4-.93c-4.15,8.84-8.12,17.19-12.09,25.57.55.46,1.1,1,1.65,1.45A129.78,129.78,0,0,1,527,444.69a175.61,175.61,0,0,1,40.41-16.94c-3.53,9.22-6.72,17.52-9.91,25.84l1.24.52a152.13,152.13,0,0,1,11.75-19.75,229.47,229.47,0,0,1,25.71-30.26c2.35-2.38,4.76-4.76,7.19-7.08,19.34-18.67,27.95-41.83,26.76-68.33-.06-1.42-.15-2.84-.26-4.26a11.75,11.75,0,0,1,.29-4c.84,2.76,1.59,5.51,2.29,8.29a175.22,175.22,0,0,1,4.29,37.08c.84,46.68-14.12,85.67-44.18,117.13a197,197,0,0,1-22.09,19.74c-.58.43-1.16.9-1.74,1.33-17.72,13.31-38.53,19.69-59.84,24q-28.14,5.68-56.62,9.65a216.64,216.64,0,0,0-31.8,6.64,140.32,140.32,0,0,0-40.39,18.9c-1.39,1-2.69,2.09-4,3.13.21.44.41.87.61,1.34a23.67,23.67,0,0,0,4.5-1.28,124.88,124.88,0,0,1,39.31-11c.81-.14,1.65-.23,2.49-.32,38.27-4.09,75.75-12,111.59-26.06a204.17,204.17,0,0,0,35.92-18.12A152.06,152.06,0,0,0,592,494.29a136.43,136.43,0,0,0,22.17-26.41c22.15-34.33,31.4-72,25.89-112.66-1.22-8.84-2.69-17.66-4.26-26.53-1.91-10.81-4-21.68-5.88-32.81,5.65,11.13,11.71,21.77,16.72,32.81.64,1.37,1.25,2.79,1.86,4.18a197.41,197.41,0,0,1,7.8,21.65A183,183,0,0,1,663.11,424.19Z"></path><path class="cls-2" d="M337,598.17l.88-3.52c.09-.38.15-.69.2-1a3.16,3.16,0,0,1,.75-1.83c14.62-14.77,28.08-27.76,44.74-37.14a40.45,40.45,0,0,0,15-14.5l.71-1.09c.88-1.34,1.76-2.69,2.66-4s2-2.89,3-4.31a191.52,191.52,0,0,1,14.46-17.91c1.18-1.36,2.45-2.71,3.74-4a216.66,216.66,0,0,1,50.34-38.78,49.2,49.2,0,0,1,8.24-3.37c1-.34,2-.68,3-1a15.82,15.82,0,0,1,2.63-.67l1.52-.31,2.9-.68-1.26,2.7c-3.12,6.65-6.13,13-9.12,19.32a130.3,130.3,0,0,1,44.88-42.61A178.06,178.06,0,0,1,567,426.36l2.8-.8L563,443.18c1.92-3.2,4-6.4,6.26-9.65a228.53,228.53,0,0,1,25.87-30.45c2.36-2.39,4.77-4.78,7.22-7.11,18.65-18,27.5-40.62,26.31-67.21-.06-1.41-.14-2.81-.26-4.21a13.39,13.39,0,0,1,.33-4.51l1.28-5,1.51,5c.82,2.66,1.57,5.4,2.31,8.36a176.29,176.29,0,0,1,4.34,37.4C639,412.31,624,452.07,593.59,483.9a197.87,197.87,0,0,1-22.25,19.89l-1.76,1.34c-19.41,14.59-42.48,20.63-60.41,24.27-18.65,3.77-37.73,7-56.71,9.67a214,214,0,0,0-31.59,6.59,138.2,138.2,0,0,0-40,18.7c-.51.36-1,.74-1.51,1.13a6.27,6.27,0,0,0,1.1-.42c11.86-5.67,24.87-9.3,39.79-11.11.77-.14,1.64-.23,2.52-.32,41.71-4.45,78.09-12.95,111.21-26a203.45,203.45,0,0,0,35.66-18A150.61,150.61,0,0,0,591,493.23,136.23,136.23,0,0,0,613,467.1c22.38-34.68,31-72.26,25.67-111.69-1.31-9.58-3-19.18-4.25-26.46q-1.17-6.66-2.41-13.36c-1.17-6.43-2.35-12.9-3.47-19.47l-1.63-9.46,4.35,8.56c2,3.85,4,7.63,5.94,11.4,3.7,7,7.51,14.21,10.81,21.47.52,1.1,1,2.26,1.52,3.41l.35.79a198.07,198.07,0,0,1,7.86,21.83,184.7,184.7,0,0,1,6.83,70.21A98.3,98.3,0,0,1,657.66,453a82,82,0,0,1-28.55,35.69,132.9,132.9,0,0,0,17-10c2.06-1.36,4.14-2.72,6.24-4.05l2.86-1.79-.66,3.3c-2.73,13.67-27.48,40.29-51.93,55.85a102.31,102.31,0,0,1-12,6.59,103.47,103.47,0,0,1-19.87,6.93,110.41,110.41,0,0,1-24.45,3,129,129,0,0,0,24-.1c3.61-.31,7.23-.68,10.87-1.06l8.38-.87-3.92,3.09c-.84.67-1.67,1.36-2.51,2.05-1.73,1.43-3.53,2.91-5.46,4.22-2.16,1.46-4.29,2.84-6.49,4.18a5.91,5.91,0,0,1-.55.36l-2.28,1.34c-.49.29-1,.57-1.53.86l-.73.4c-.28.18-.63.37-1,.55-1.13.64-2,1.13-3,1.57-.11.07-.31.17-.51.27s-.37.19-.55.3L558.37,567c-2.93,1.42-6,2.77-9.19,4-1.2.47-2.43.94-3.66,1.37-.87.33-1.82.65-2.74.95a10.8,10.8,0,0,1-1.25.41c-.64.22-1.36.43-2.07.64l-.85.26a7.75,7.75,0,0,1-1.11.3c-.59.21-1.42.44-2.25.66a7.56,7.56,0,0,1-1.27.32c-1,.3-2.15.57-3.25.81-3.47.79-6.73,1.41-10,1.89-3.75.57-7.19,1-10.53,1.18l-.6,0c-.4,0-.8,0-1.2,0a146,146,0,0,1-30.84-1.58c-4.94-.77-10.16-1.83-15.95-3.25a239,239,0,0,0-25.81-4.5c-4.39-.59-8.78-1.19-13.14-1.91-.88-.15-1.72-.3-2.59-.51-1.21-.25-2.48-.53-3.75-.81a81.93,81.93,0,0,0-8.28-1.54c-1.17-.17-2.36-.28-3.53-.34a24.74,24.74,0,0,0-3.95-.12c-.34,0-.62,0-.88.06a10.88,10.88,0,0,0-2.82.59c-17,6-34.08,15-52.35,27.43-.78.53-1.57,1-2.46,1.56l-2,1.28Zm149.62-130a5.92,5.92,0,0,0-.9.27c-1,.38-2.06.73-3.08,1.07a46.81,46.81,0,0,0-7.76,3.16,213.92,213.92,0,0,0-49.66,38.27c-1.27,1.29-2.5,2.61-3.67,4a191.43,191.43,0,0,0-14.26,17.66c-1,1.41-2,2.82-3,4.26s-1.76,2.63-2.62,4l-.7,1.07a43.66,43.66,0,0,1-16,15.45c-14.57,8.21-26.73,19.32-39.45,32,17.49-11.66,34-20.18,50.4-26a13.23,13.23,0,0,1,3.53-.75c.34,0,.71-.06,1-.06a24.25,24.25,0,0,1,4.27.12,36,36,0,0,1,3.69.36,82.55,82.55,0,0,1,8.53,1.58c1.25.28,2.5.56,3.74.81.86.2,1.65.34,2.46.48,4.32.71,8.68,1.31,13,1.9a239.94,239.94,0,0,1,26.12,4.56c5.7,1.39,10.83,2.44,15.69,3.19A143.4,143.4,0,0,0,508.36,577c.43,0,.76,0,1.09-.05l.63,0c3.23-.22,6.6-.6,10.26-1.15,3.16-.47,6.35-1.08,9.75-1.86,1.06-.23,2.16-.48,3.23-.8a4.94,4.94,0,0,0,.77-.18l.42-.12c.75-.21,1.53-.41,2.25-.66a6.72,6.72,0,0,0,.93-.25l.94-.28c.68-.21,1.37-.41,2-.63a9.62,9.62,0,0,0,1.11-.37c1-.33,1.91-.64,2.76-1,1.22-.44,2.42-.9,3.6-1.35,3.09-1.21,6.12-2.53,9-3.93l2.63-1.26a5.13,5.13,0,0,1,.6-.33l.48-.25c.95-.47,1.79-.91,2.66-1.41l.29-.16c.27-.15.56-.3.84-.48l.83-.46c.48-.26,1-.53,1.44-.81L569,558l.59-.38c2.26-1.4,4.36-2.75,6.49-4.18,1.38-.94,2.72-2,4-3.06-3.19.33-6.36.65-9.53.92-13.32,1.07-27.64,1.35-42.1-3.85l-12-4.31,12.66,1.51c14.75,1.76,28.16,1.13,41-1.92A101.19,101.19,0,0,0,589.44,536a99.42,99.42,0,0,0,11.63-6.4c21.41-13.63,43.77-36.65,49.48-50.3l-2.84,1.85c-7.79,5.12-15.85,10.42-25.43,13.34l-2.88.87,1.11-2.79c.16-.4.26-.71.33-.94a2.39,2.39,0,0,1,.95-1.47c15.51-9.57,26.68-22.42,33.2-38.2a95.9,95.9,0,0,0,6.68-27.88h0a182.19,182.19,0,0,0-6.73-69.11,194.22,194.22,0,0,0-7.75-21.5l-.34-.78c-.48-1.13-1-2.26-1.49-3.35-3.27-7.2-6.9-14.07-10.74-21.34-.54-1-1.08-2-1.61-3.05q.91,5.1,1.84,10.15,1.21,6.72,2.41,13.37c1.29,7.31,2.94,16.95,4.27,26.58,5.43,40.14-3.35,78.37-26.11,113.65A139,139,0,0,1,593,495.35a153,153,0,0,1-21.77,16.77,206.49,206.49,0,0,1-36.17,18.25c-33.37,13.12-70,21.67-112,26.15-.8.09-1.61.17-2.39.31-14.69,1.78-27.4,5.32-38.94,10.84a13.62,13.62,0,0,1-3.38,1c-.46.1-.91.2-1.36.32l-1.2.33-.51-1.14c-.19-.45-.39-.88-.59-1.3l-.49-1,2.13-1.68c.94-.75,1.88-1.5,2.86-2.2a141.21,141.21,0,0,1,40.82-19.11,218.37,218.37,0,0,1,32-6.69c18.92-2.63,37.94-5.87,56.53-9.64,17.63-3.57,40.3-9.5,59.26-23.74l1.73-1.33a193.73,193.73,0,0,0,21.92-19.59c29.87-31.26,44.6-70.31,43.78-116.09a176.87,176.87,0,0,0-3.62-33.94c.4,26.06-8.77,48.32-27.29,66.21-2.43,2.31-4.83,4.68-7.17,7.05a225.87,225.87,0,0,0-25.56,30.07A147.71,147.71,0,0,0,560,454.75l-.6,1.21-1.25-.51-1.28-.53-1.27-.56L565,430a172.66,172.66,0,0,0-37.28,16A127.72,127.72,0,0,0,480,493.85l-.9,1.55-1.33-1.19c-.54-.49-1.08-1-1.62-1.42l-.85-.72,2.8-5.92C480.9,480.24,483.72,474.29,486.62,468.12Z"></path></svg>